<svg xmlns="http://www.w3.org/2000/svg" width="500" height="434" viewBox="0 0 500 434" fill="none"><path d="M250 433.663C388.071 433.663 500 427.094 500 418.99C500 410.886 388.071 404.316 250 404.316C111.929 404.316 0 410.886 0 418.99C0 427.094 111.929 433.663 250 433.663Z" fill="#F5F5F5"></path><path d="M347.902 0H309.44C307.823 0 306.513 1.3174 306.513 2.9425V41.6099C306.513 43.235 307.823 44.5524 309.44 44.5524H347.902C349.519 44.5524 350.829 43.235 350.829 41.6099V2.9425C350.829 1.3174 349.519 0 347.902 0Z" fill="#714B67"></path><g opacity="0.4"><path d="M347.902 0H309.44C307.823 0 306.513 1.3174 306.513 2.9425V41.6099C306.513 43.235 307.823 44.5524 309.44 44.5524H347.902C349.519 44.5524 350.829 43.235 350.829 41.6099V2.9425C350.829 1.3174 349.519 0 347.902 0Z" fill="white"></path></g><path fill-rule="evenodd" clip-rule="evenodd" d="M331.368 31.7911C330.778 31.7911 330.3 31.3084 330.3 30.7118C330.3 30.1151 330.778 29.6336 331.368 29.6336C331.959 29.6336 332.436 30.1151 332.436 30.7118C332.436 31.3084 331.959 31.7911 331.368 31.7911ZM328.095 33.69C334.315 33.69 333.927 30.9643 333.927 30.9643L333.92 28.1406H327.985V27.2928H336.276C336.276 27.2928 340.256 27.7496 340.256 21.408C340.256 15.0663 336.784 15.2898 336.784 15.2898H334.71V18.2337C334.71 18.2337 334.821 21.7429 331.292 21.7429H325.405C325.405 21.7429 322.098 21.6901 322.098 24.9742V30.4033C322.098 30.4033 321.596 33.69 328.095 33.69ZM324.647 10.9599C325.237 10.9599 325.714 11.4426 325.714 12.0392C325.714 12.6359 325.237 13.1174 324.647 13.1174C324.057 13.1174 323.579 12.6359 323.579 12.0392C323.579 11.4426 324.057 10.9599 324.647 10.9599ZM327.919 9.06104C321.7 9.06104 322.088 11.7867 322.088 11.7867L322.096 14.6104H328.03V15.4582H319.738C319.738 15.4582 315.758 15.0014 315.758 21.343C315.758 27.6847 319.232 27.4612 319.232 27.4612H321.304V24.5172C321.304 24.5172 321.193 21.0081 324.723 21.0081H330.609C330.609 21.0081 333.916 21.0609 333.916 17.7768V12.3477C333.916 12.3477 334.418 9.06104 327.919 9.06104Z" fill="white"></path><path d="M298.996 64.6013V53.2885H303.436C304.289 53.2885 305.016 53.4523 305.617 53.7801C306.218 54.1041 306.676 54.5553 306.991 55.1334C307.309 55.7079 307.469 56.3708 307.469 57.122C307.469 57.8732 307.308 58.5361 306.985 59.1106C306.663 59.6851 306.196 60.1325 305.584 60.4529C304.976 60.7732 304.24 60.9334 303.375 60.9334H300.546V59.0167H302.991C303.449 59.0167 303.826 58.9375 304.123 58.7791C304.423 58.6171 304.646 58.3943 304.793 58.1108C304.943 57.8235 305.018 57.4939 305.018 57.122C305.018 56.7464 304.943 56.4186 304.793 56.1388C304.646 55.8552 304.423 55.6361 304.123 55.4814C303.822 55.3231 303.441 55.2439 302.98 55.2439H301.375V64.6013H298.996Z" fill="#AEAEAE"></path><path d="M308.355 53.2885H311.02L313.586 58.1605H313.695L316.261 53.2885H318.926L314.822 60.602V64.6013H312.459V60.602L308.355 53.2885Z" fill="#AEAEAE"></path><path d="M320.507 55.2605V53.2885H329.749V55.2605H326.304V64.6013H323.952V55.2605H320.507Z" fill="#AEAEAE"></path><path d="M331.271 64.6013V53.2885H333.65V57.9561H338.48V53.2885H340.854V64.6013H338.48V59.9281H333.65V64.6013H331.271Z" fill="#AEAEAE"></path><path d="M353.156 58.9449C353.156 60.1785 352.923 61.228 352.458 62.0934C351.997 62.9588 351.367 63.6199 350.568 64.0765C349.773 64.5295 348.879 64.7559 347.887 64.7559C346.887 64.7559 345.989 64.5276 345.194 64.071C344.4 63.6143 343.771 62.9533 343.31 62.0879C342.848 61.2225 342.617 60.1748 342.617 58.9449C342.617 57.7112 342.848 56.6617 343.31 55.7963C343.771 54.9309 344.4 54.2717 345.194 53.8187C345.989 53.3621 346.887 53.1338 347.887 53.1338C348.879 53.1338 349.773 53.3621 350.568 53.8187C351.367 54.2717 351.997 54.9309 352.458 55.7963C352.923 56.6617 353.156 57.7112 353.156 58.9449ZM350.744 58.9449C350.744 58.1457 350.625 57.4718 350.387 56.9231C350.152 56.3744 349.821 55.9583 349.392 55.6748C348.964 55.3912 348.462 55.2494 347.887 55.2494C347.312 55.2494 346.81 55.3912 346.381 55.6748C345.953 55.9583 345.619 56.3744 345.381 56.9231C345.147 57.4718 345.03 58.1457 345.03 58.9449C345.03 59.744 345.147 60.4179 345.381 60.9666C345.619 61.5153 345.953 61.9314 346.381 62.215C346.81 62.4985 347.312 62.6403 347.887 62.6403C348.462 62.6403 348.964 62.4985 349.392 62.215C349.821 61.9314 350.152 61.5153 350.387 60.9666C350.625 60.4179 350.744 59.744 350.744 58.9449Z" fill="#AEAEAE"></path><path d="M364.331 53.2885V64.6013H362.276L357.38 57.481H357.298V64.6013H354.918V53.2885H357.006L361.864 60.4032H361.962V53.2885H364.331Z" fill="#AEAEAE"></path><path d="M442.685 23.7476H404.223C402.606 23.7476 401.296 25.065 401.296 26.6901V65.3574C401.296 66.9825 402.606 68.3 404.223 68.3H442.685C444.302 68.3 445.612 66.9825 445.612 65.3574V26.6901C445.612 25.065 444.302 23.7476 442.685 23.7476Z" fill="#714B67"></path><g opacity="0.4"><path d="M442.685 23.7476H404.223C402.606 23.7476 401.296 25.065 401.296 26.6901V65.3574C401.296 66.9825 402.606 68.3 404.223 68.3H442.685C444.302 68.3 445.612 66.9825 445.612 65.3574V26.6901C445.612 25.065 444.302 23.7476 442.685 23.7476Z" fill="white"></path></g><path fill-rule="evenodd" clip-rule="evenodd" d="M423.423 33.6899C415.884 33.6899 411.173 39.2042 411.173 46.0044C411.173 52.8069 415.884 58.3189 423.423 58.3189C430.96 58.3189 435.671 52.8046 435.671 46.0044C435.669 39.2019 430.96 33.6899 423.423 33.6899ZM423.423 52.4019C419.507 52.4019 417.057 49.5372 417.057 46.0044C417.057 42.4716 419.505 39.6069 423.423 39.6069C427.339 39.6069 429.787 42.4716 429.787 46.0044C429.785 49.5372 427.337 52.4019 423.423 52.4019Z" fill="white"></path><path d="M410.886 82.4766C410.886 83.7103 410.654 84.7598 410.188 85.6252C409.727 86.4906 409.097 87.1516 408.298 87.6082C407.503 88.0612 406.61 88.2877 405.617 88.2877C404.617 88.2877 403.719 88.0593 402.925 87.6027C402.13 87.1461 401.502 86.4851 401.04 85.6197C400.578 84.7543 400.348 83.7066 400.348 82.4766C400.348 81.2429 400.578 80.1934 401.04 79.328C401.502 78.4626 402.13 77.8034 402.925 77.3505C403.719 76.8938 404.617 76.6655 405.617 76.6655C406.61 76.6655 407.503 76.8938 408.298 77.3505C409.097 77.8034 409.727 78.4626 410.188 79.328C410.654 80.1934 410.886 81.2429 410.886 82.4766ZM408.474 82.4766C408.474 81.6775 408.355 81.0036 408.117 80.4549C407.883 79.9062 407.551 79.49 407.122 79.2065C406.694 78.9229 406.192 78.7812 405.617 78.7812C405.042 78.7812 404.54 78.9229 404.111 79.2065C403.683 79.49 403.35 79.9062 403.111 80.4549C402.877 81.0036 402.76 81.6775 402.76 82.4766C402.76 83.2757 402.877 83.9496 403.111 84.4983C403.35 85.047 403.683 85.4631 404.111 85.7467C404.54 86.0303 405.042 86.172 405.617 86.172C406.192 86.172 406.694 86.0303 407.122 85.7467C407.551 85.4631 407.883 85.047 408.117 84.4983C408.355 83.9496 408.474 83.2757 408.474 82.4766Z" fill="#AEAEAE"></path><path d="M416.638 88.133H412.649V76.8202H416.671C417.803 76.8202 418.777 77.0467 419.594 77.4996C420.411 77.9489 421.039 78.5952 421.478 79.4385C421.922 80.2818 422.143 81.2908 422.143 82.4655C422.143 83.644 421.922 84.6567 421.478 85.5037C421.039 86.3506 420.407 87.0006 419.583 87.4536C418.762 87.9065 417.781 88.133 416.638 88.133ZM415.028 86.0837H416.539C417.242 86.0837 417.834 85.9585 418.314 85.708C418.797 85.4539 419.16 85.0617 419.401 84.5315C419.647 83.9975 419.77 83.3089 419.77 82.4655C419.77 81.6296 419.647 80.9465 419.401 80.4162C419.16 79.8859 418.799 79.4956 418.319 79.2452C417.839 78.9947 417.248 78.8695 416.544 78.8695H415.028V86.0837Z" fill="#AEAEAE"></path><path d="M434.246 82.4766C434.246 83.7103 434.014 84.7598 433.549 85.6252C433.087 86.4906 432.457 87.1516 431.658 87.6082C430.864 88.0612 429.97 88.2877 428.977 88.2877C427.977 88.2877 427.08 88.0593 426.285 87.6027C425.49 87.1461 424.862 86.4851 424.4 85.6197C423.939 84.7543 423.708 83.7066 423.708 82.4766C423.708 81.2429 423.939 80.1934 424.4 79.328C424.862 78.4626 425.49 77.8034 426.285 77.3505C427.08 76.8938 427.977 76.6655 428.977 76.6655C429.97 76.6655 430.864 76.8938 431.658 77.3505C432.457 77.8034 433.087 78.4626 433.549 79.328C434.014 80.1934 434.246 81.2429 434.246 82.4766ZM431.834 82.4766C431.834 81.6775 431.715 81.0036 431.477 80.4549C431.243 79.9062 430.911 79.49 430.483 79.2065C430.054 78.9229 429.552 78.7812 428.977 78.7812C428.402 78.7812 427.9 78.9229 427.472 79.2065C427.043 79.49 426.71 79.9062 426.472 80.4549C426.237 81.0036 426.12 81.6775 426.12 82.4766C426.12 83.2757 426.237 83.9496 426.472 84.4983C426.71 85.047 427.043 85.4631 427.472 85.7467C427.9 86.0303 428.402 86.172 428.977 86.172C429.552 86.172 430.054 86.0303 430.483 85.7467C430.911 85.4631 431.243 85.047 431.477 84.4983C431.715 83.9496 431.834 83.2757 431.834 82.4766Z" fill="#AEAEAE"></path><path d="M446.35 82.4766C446.35 83.7103 446.117 84.7598 445.652 85.6252C445.19 86.4906 444.56 87.1516 443.762 87.6082C442.967 88.0612 442.073 88.2877 441.08 88.2877C440.08 88.2877 439.183 88.0593 438.388 87.6027C437.593 87.1461 436.965 86.4851 436.503 85.6197C436.042 84.7543 435.811 83.7066 435.811 82.4766C435.811 81.2429 436.042 80.1934 436.503 79.328C436.965 78.4626 437.593 77.8034 438.388 77.3505C439.183 76.8938 440.08 76.6655 441.08 76.6655C442.073 76.6655 442.967 76.8938 443.762 77.3505C444.56 77.8034 445.19 78.4626 445.652 79.328C446.117 80.1934 446.35 81.2429 446.35 82.4766ZM443.937 82.4766C443.937 81.6775 443.818 81.0036 443.58 80.4549C443.346 79.9062 443.014 79.49 442.586 79.2065C442.157 78.9229 441.655 78.7812 441.08 78.7812C440.505 78.7812 440.003 78.9229 439.575 79.2065C439.146 79.49 438.813 79.9062 438.575 80.4549C438.34 81.0036 438.223 81.6775 438.223 82.4766C438.223 83.2757 438.34 83.9496 438.575 84.4983C438.813 85.047 439.146 85.4631 439.575 85.7467C440.003 86.0303 440.505 86.172 441.08 86.172C441.655 86.172 442.157 86.0303 442.586 85.7467C443.014 85.4631 443.346 85.047 443.58 84.4983C443.818 83.9496 443.937 83.2757 443.937 82.4766Z" fill="#AEAEAE"></path><path d="M277.154 19.4053H119.19V134.357H277.154V19.4053Z" fill="black"></path><path opacity="0.9" d="M277.154 19.4053H119.19V134.357H277.154V19.4053Z" fill="white"></path><path opacity="0.1" d="M141.187 19.4053H119.19V134.357H141.187V19.4053Z" fill="black"></path><path d="M277.154 19.4053H119.19V30.1512H277.154V19.4053Z" fill="#B5B5B5"></path><g opacity="0.2"><path d="M182.577 46.3674H153.811C153.469 46.3674 153.141 46.2309 152.899 45.9878C152.657 45.7447 152.521 45.415 152.521 45.0712C152.521 44.7274 152.657 44.3977 152.899 44.1546C153.141 43.9115 153.469 43.7749 153.811 43.7749H182.577C182.919 43.7749 183.247 43.9115 183.489 44.1546C183.731 44.3977 183.867 44.7274 183.867 45.0712C183.867 45.415 183.731 45.7447 183.489 45.9878C183.247 46.2309 182.919 46.3674 182.577 46.3674Z" fill="#00DCAD"></path><path d="M246.131 46.3674H190.236C189.894 46.3674 189.566 46.2309 189.324 45.9878C189.082 45.7447 188.946 45.415 188.946 45.0712C188.946 44.7274 189.082 44.3977 189.324 44.1546C189.566 43.9115 189.894 43.7749 190.236 43.7749H246.131C246.473 43.7749 246.801 43.9115 247.043 44.1546C247.284 44.3977 247.42 44.7274 247.42 45.0712C247.42 45.415 247.284 45.7447 247.043 45.9878C246.801 46.2309 246.473 46.3674 246.131 46.3674Z" fill="black"></path><path d="M232.825 54.8318H157.679C157.337 54.8318 157.009 54.6952 156.767 54.4521C156.525 54.209 156.39 53.8793 156.39 53.5355C156.39 53.1917 156.525 52.862 156.767 52.6189C157.009 52.3758 157.337 52.2393 157.679 52.2393H232.825C233.167 52.2393 233.495 52.3758 233.736 52.6189C233.978 52.862 234.114 53.1917 234.114 53.5355C234.114 53.8793 233.978 54.209 233.736 54.4521C233.495 54.6952 233.167 54.8318 232.825 54.8318Z" fill="black"></path><path d="M202.215 63.2834H153.811C153.469 63.2834 153.141 63.1469 152.899 62.9038C152.657 62.6607 152.521 62.331 152.521 61.9872C152.521 61.6434 152.657 61.3137 152.899 61.0706C153.141 60.8275 153.469 60.6909 153.811 60.6909H202.215C202.557 60.6909 202.885 60.8275 203.126 61.0706C203.368 61.3137 203.504 61.6434 203.504 61.9872C203.504 62.331 203.368 62.6607 203.126 62.9038C202.885 63.1469 202.557 63.2834 202.215 63.2834Z" fill="black"></path><path d="M246.131 63.2834H211.447C211.105 63.2834 210.777 63.1469 210.535 62.9038C210.293 62.6607 210.157 62.331 210.157 61.9872C210.157 61.6434 210.293 61.3137 210.535 61.0706C210.777 60.8275 211.105 60.6909 211.447 60.6909H246.131C246.473 60.6909 246.801 60.8275 247.043 61.0706C247.285 61.3137 247.421 61.6434 247.421 61.9872C247.421 62.331 247.285 62.6607 247.043 62.9038C246.801 63.1469 246.473 63.2834 246.131 63.2834Z" fill="#00DCAD"></path><path d="M180.54 71.7483H153.811C153.469 71.7483 153.141 71.6117 152.899 71.3686C152.657 71.1255 152.521 70.7958 152.521 70.452C152.521 70.1082 152.657 69.7785 152.899 69.5354C153.141 69.2923 153.469 69.1558 153.811 69.1558H180.54C180.882 69.1558 181.21 69.2923 181.452 69.5354C181.694 69.7785 181.829 70.1082 181.829 70.452C181.829 70.7958 181.694 71.1255 181.452 71.3686C181.21 71.6117 180.882 71.7483 180.54 71.7483Z" fill="black"></path><path d="M231.29 71.7483H189.204C188.862 71.7483 188.534 71.6117 188.293 71.3686C188.051 71.1255 187.915 70.7958 187.915 70.452C187.915 70.1082 188.051 69.7785 188.293 69.5354C188.534 69.2923 188.862 69.1558 189.204 69.1558H231.29C231.632 69.1558 231.96 69.2923 232.202 69.5354C232.444 69.7785 232.58 70.1082 232.58 70.452C232.58 70.7958 232.444 71.1255 232.202 71.3686C231.96 71.6117 231.632 71.7483 231.29 71.7483Z" fill="black"></path><path d="M193.64 80.2126H157.679C157.337 80.2126 157.009 80.0761 156.767 79.833C156.525 79.5899 156.39 79.2602 156.39 78.9164C156.39 78.5726 156.525 78.2429 156.767 77.9998C157.009 77.7567 157.337 77.6201 157.679 77.6201H193.64C193.982 77.6201 194.31 77.7567 194.552 77.9998C194.794 78.2429 194.93 78.5726 194.93 78.9164C194.93 79.2602 194.794 79.5899 194.552 79.833C194.31 80.0761 193.982 80.2126 193.64 80.2126Z" fill="#00DCAD"></path><path d="M198.14 88.6775H157.679C157.337 88.6775 157.009 88.5409 156.767 88.2978C156.525 88.0547 156.39 87.725 156.39 87.3812C156.39 87.0374 156.525 86.7077 156.767 86.4646C157.009 86.2215 157.337 86.085 157.679 86.085H198.14C198.482 86.085 198.81 86.2215 199.052 86.4646C199.294 86.7077 199.43 87.0374 199.43 87.3812C199.43 87.725 199.294 88.0547 199.052 88.2978C198.81 88.5409 198.482 88.6775 198.14 88.6775Z" fill="black"></path><path d="M246.131 88.6775H204.87C204.528 88.6775 204.201 88.5409 203.959 88.2978C203.717 88.0547 203.581 87.725 203.581 87.3812C203.581 87.0374 203.717 86.7077 203.959 86.4646C204.201 86.2215 204.528 86.085 204.87 86.085H246.131C246.473 86.085 246.801 86.2215 247.043 86.4646C247.285 86.7077 247.42 87.0374 247.42 87.3812C247.42 87.725 247.285 88.0547 247.043 88.2978C246.801 88.5409 246.473 88.6775 246.131 88.6775Z" fill="black"></path><path d="M176.968 97.1291H153.759C153.417 97.1291 153.089 96.9926 152.847 96.7495C152.606 96.5064 152.47 96.1767 152.47 95.8329C152.47 95.4891 152.606 95.1594 152.847 94.9163C153.089 94.6732 153.417 94.5366 153.759 94.5366H176.968C177.31 94.5366 177.638 94.6732 177.88 94.9163C178.122 95.1594 178.258 95.4891 178.258 95.8329C178.258 96.1767 178.122 96.5064 177.88 96.7495C177.638 96.9926 177.31 97.1291 176.968 97.1291Z" fill="#00DCAD"></path><path d="M246.131 97.1291H184.872C184.53 97.1291 184.202 96.9926 183.961 96.7495C183.719 96.5064 183.583 96.1767 183.583 95.8329C183.583 95.4891 183.719 95.1594 183.961 94.9163C184.202 94.6732 184.53 94.5366 184.872 94.5366H246.131C246.473 94.5366 246.801 94.6732 247.043 94.9163C247.285 95.1594 247.421 95.4891 247.421 95.8329C247.421 96.1767 247.285 96.5064 247.043 96.7495C246.801 96.9926 246.473 97.1291 246.131 97.1291Z" fill="black"></path><path d="M197.882 105.593H157.679C157.337 105.593 157.009 105.457 156.767 105.214C156.525 104.971 156.39 104.641 156.39 104.297C156.39 103.953 156.525 103.624 156.767 103.381C157.009 103.138 157.337 103.001 157.679 103.001H197.882C198.224 103.001 198.552 103.138 198.794 103.381C199.036 103.624 199.172 103.953 199.172 104.297C199.172 104.641 199.036 104.971 198.794 105.214C198.552 105.457 198.224 105.593 197.882 105.593Z" fill="black"></path><path d="M229.51 105.593H203.491C203.149 105.593 202.821 105.457 202.579 105.214C202.337 104.971 202.201 104.641 202.201 104.297C202.201 103.953 202.337 103.624 202.579 103.381C202.821 103.138 203.149 103.001 203.491 103.001H229.51C229.852 103.001 230.18 103.138 230.422 103.381C230.664 103.624 230.8 103.953 230.8 104.297C230.8 104.641 230.664 104.971 230.422 105.214C230.18 105.457 229.852 105.593 229.51 105.593Z" fill="black"></path><path d="M203.955 114.058H157.679C157.337 114.058 157.009 113.921 156.767 113.678C156.525 113.435 156.39 113.105 156.39 112.762C156.39 112.418 156.525 112.088 156.767 111.845C157.009 111.602 157.337 111.465 157.679 111.465H203.955C204.297 111.465 204.625 111.602 204.867 111.845C205.109 112.088 205.245 112.418 205.245 112.762C205.245 113.105 205.109 113.435 204.867 113.678C204.625 113.921 204.297 114.058 203.955 114.058Z" fill="#00DCAD"></path></g><path opacity="0.4" d="M270.358 27.066C271.576 27.066 272.563 26.0736 272.563 24.8494C272.563 23.6252 271.576 22.6328 270.358 22.6328C269.14 22.6328 268.153 23.6252 268.153 24.8494C268.153 26.0736 269.14 27.066 270.358 27.066Z" fill="white"></path><path opacity="0.4" d="M262.609 27.066C263.827 27.066 264.814 26.0736 264.814 24.8494C264.814 23.6252 263.827 22.6328 262.609 22.6328C261.391 22.6328 260.404 23.6252 260.404 24.8494C260.404 26.0736 261.391 27.066 262.609 27.066Z" fill="white"></path><path opacity="0.4" d="M254.873 27.066C256.091 27.066 257.078 26.0736 257.078 24.8494C257.078 23.6252 256.091 22.6328 254.873 22.6328C253.655 22.6328 252.668 23.6252 252.668 24.8494C252.668 26.0736 253.655 27.066 254.873 27.066Z" fill="white"></path><g opacity="0.2"><path d="M130.576 46.3674C130.234 46.3674 129.906 46.2309 129.664 45.9878C129.422 45.7447 129.286 45.415 129.286 45.0712C129.286 44.7274 129.422 44.3977 129.664 44.1546C129.906 43.9115 130.234 43.7749 130.576 43.7749C130.917 43.7749 131.245 43.9115 131.487 44.1546C131.729 44.3977 131.865 44.7274 131.865 45.0712C131.865 45.415 131.729 45.7447 131.487 45.9878C131.245 46.2309 130.917 46.3674 130.576 46.3674Z" fill="black"></path><path d="M130.576 54.8318C130.234 54.8318 129.906 54.6952 129.664 54.4521C129.422 54.209 129.286 53.8793 129.286 53.5355C129.286 53.1917 129.422 52.862 129.664 52.6189C129.906 52.3758 130.234 52.2393 130.576 52.2393C130.917 52.2393 131.245 52.3758 131.487 52.6189C131.729 52.862 131.865 53.1917 131.865 53.5355C131.865 53.8793 131.729 54.209 131.487 54.4521C131.245 54.6952 130.917 54.8318 130.576 54.8318Z" fill="black"></path><path d="M130.576 63.2834C130.234 63.2834 129.906 63.1469 129.664 62.9038C129.422 62.6607 129.286 62.331 129.286 61.9872C129.286 61.6434 129.422 61.3137 129.664 61.0706C129.906 60.8275 130.234 60.6909 130.576 60.6909C130.917 60.6909 131.245 60.8275 131.487 61.0706C131.729 61.3137 131.865 61.6434 131.865 61.9872C131.865 62.331 131.729 62.6607 131.487 62.9038C131.245 63.1469 130.917 63.2834 130.576 63.2834Z" fill="black"></path><path d="M130.576 71.7483C130.234 71.7483 129.906 71.6117 129.664 71.3686C129.422 71.1255 129.286 70.7958 129.286 70.452C129.286 70.1082 129.422 69.7785 129.664 69.5354C129.906 69.2923 130.234 69.1558 130.576 69.1558C130.917 69.1558 131.245 69.2923 131.487 69.5354C131.729 69.7785 131.865 70.1082 131.865 70.452C131.865 70.7958 131.729 71.1255 131.487 71.3686C131.245 71.6117 130.917 71.7483 130.576 71.7483Z" fill="black"></path><path d="M130.576 80.2126C130.234 80.2126 129.906 80.0761 129.664 79.833C129.422 79.5899 129.286 79.2602 129.286 78.9164C129.286 78.5726 129.422 78.2429 129.664 77.9998C129.906 77.7567 130.234 77.6201 130.576 77.6201C130.917 77.6201 131.245 77.7567 131.487 77.9998C131.729 78.2429 131.865 78.5726 131.865 78.9164C131.865 79.2602 131.729 79.5899 131.487 79.833C131.245 80.0761 130.917 80.2126 130.576 80.2126Z" fill="black"></path><path d="M130.576 88.6775C130.234 88.6775 129.906 88.5409 129.664 88.2978C129.422 88.0547 129.286 87.725 129.286 87.3812C129.286 87.0374 129.422 86.7077 129.664 86.4646C129.906 86.2215 130.234 86.085 130.576 86.085C130.917 86.085 131.245 86.2215 131.487 86.4646C131.729 86.7077 131.865 87.0374 131.865 87.3812C131.865 87.725 131.729 88.0547 131.487 88.2978C131.245 88.5409 130.917 88.6775 130.576 88.6775Z" fill="black"></path><path d="M130.576 97.1291C130.234 97.1291 129.906 96.9926 129.664 96.7495C129.422 96.5064 129.286 96.1767 129.286 95.8329C129.286 95.4891 129.422 95.1594 129.664 94.9163C129.906 94.6732 130.234 94.5366 130.576 94.5366C130.917 94.5366 131.245 94.6732 131.487 94.9163C131.729 95.1594 131.865 95.4891 131.865 95.8329C131.865 96.1767 131.729 96.5064 131.487 96.7495C131.245 96.9926 130.917 97.1291 130.576 97.1291Z" fill="black"></path><path d="M130.576 105.593C130.234 105.593 129.906 105.457 129.664 105.214C129.422 104.971 129.286 104.641 129.286 104.297C129.286 103.953 129.422 103.624 129.664 103.381C129.906 103.138 130.234 103.001 130.576 103.001C130.917 103.001 131.245 103.138 131.487 103.381C131.729 103.624 131.865 103.953 131.865 104.297C131.865 104.641 131.729 104.971 131.487 105.214C131.245 105.457 130.917 105.593 130.576 105.593Z" fill="black"></path><path d="M130.576 114.058C130.234 114.058 129.906 113.921 129.664 113.678C129.422 113.435 129.286 113.105 129.286 112.762C129.286 112.418 129.422 112.088 129.664 111.845C129.906 111.602 130.234 111.465 130.576 111.465C130.917 111.465 131.245 111.602 131.487 111.845C131.729 112.088 131.865 112.418 131.865 112.762C131.865 113.105 131.729 113.435 131.487 113.678C131.245 113.921 130.917 114.058 130.576 114.058Z" fill="black"></path></g><path d="M420.224 113.203H213.238V246.445H420.224V113.203Z" fill="#263238"></path><path opacity="0.9" d="M420.224 113.203H213.238V246.445H420.224V113.203Z" fill="white"></path><path opacity="0.1" d="M245.525 113.203H213.238V246.445H245.525V113.203Z" fill="black"></path><path d="M420.224 113.203H213.238V123.949H420.224V113.203Z" fill="#B5B5B5"></path><path d="M227.861 135.731L224.431 137.028L227.861 138.324V139.62L222.961 137.741V136.444L227.861 134.578V135.731Z" fill="white"></path><path d="M231.561 131.895H232.992L229.588 141.655H228.157L231.561 131.895Z" fill="white"></path><path d="M238.085 136.315V137.611L233.186 139.491V138.194L236.615 136.898L233.186 135.602V134.306L238.085 136.315Z" fill="white"></path><g opacity="0.2"><path d="M237.363 150.548H223.334C222.992 150.548 222.664 150.411 222.423 150.168C222.181 149.925 222.045 149.595 222.045 149.251C222.045 148.908 222.181 148.578 222.423 148.335C222.664 148.092 222.992 147.955 223.334 147.955H237.363C237.705 147.955 238.033 148.092 238.275 148.335C238.516 148.578 238.652 148.908 238.652 149.251C238.652 149.595 238.516 149.925 238.275 150.168C238.033 150.411 237.705 150.548 237.363 150.548Z" fill="black"></path><path d="M237.363 158.999H223.334C222.992 158.999 222.664 158.863 222.423 158.62C222.181 158.376 222.045 158.047 222.045 157.703C222.045 157.359 222.181 157.029 222.423 156.786C222.664 156.543 222.992 156.407 223.334 156.407H237.363C237.705 156.407 238.033 156.543 238.275 156.786C238.516 157.029 238.652 157.359 238.652 157.703C238.652 158.047 238.516 158.376 238.275 158.62C238.033 158.863 237.705 158.999 237.363 158.999Z" fill="black"></path><path d="M237.363 167.464H223.334C222.992 167.464 222.664 167.327 222.423 167.084C222.181 166.841 222.045 166.511 222.045 166.167C222.045 165.824 222.181 165.494 222.423 165.251C222.664 165.008 222.992 164.871 223.334 164.871H237.363C237.705 164.871 238.033 165.008 238.275 165.251C238.516 165.494 238.652 165.824 238.652 166.167C238.652 166.511 238.516 166.841 238.275 167.084C238.033 167.327 237.705 167.464 237.363 167.464Z" fill="black"></path><path d="M237.363 175.928H223.334C222.992 175.928 222.664 175.792 222.423 175.549C222.181 175.306 222.045 174.976 222.045 174.632C222.045 174.288 222.181 173.959 222.423 173.716C222.664 173.473 222.992 173.336 223.334 173.336H237.363C237.705 173.336 238.033 173.473 238.275 173.716C238.516 173.959 238.652 174.288 238.652 174.632C238.652 174.976 238.516 175.306 238.275 175.549C238.033 175.792 237.705 175.928 237.363 175.928Z" fill="black"></path><path d="M237.363 184.393H223.334C222.992 184.393 222.664 184.256 222.423 184.013C222.181 183.77 222.045 183.44 222.045 183.097C222.045 182.753 222.181 182.423 222.423 182.18C222.664 181.937 222.992 181.8 223.334 181.8H237.363C237.705 181.8 238.033 181.937 238.275 182.18C238.516 182.423 238.652 182.753 238.652 183.097C238.652 183.44 238.516 183.77 238.275 184.013C238.033 184.256 237.705 184.393 237.363 184.393Z" fill="black"></path><path d="M237.363 192.844H223.334C222.992 192.844 222.664 192.708 222.423 192.465C222.181 192.222 222.045 191.892 222.045 191.548C222.045 191.204 222.181 190.875 222.423 190.632C222.664 190.389 222.992 190.252 223.334 190.252H237.363C237.705 190.252 238.033 190.389 238.275 190.632C238.516 190.875 238.652 191.204 238.652 191.548C238.652 191.892 238.516 192.222 238.275 192.465C238.033 192.708 237.705 192.844 237.363 192.844Z" fill="black"></path><path d="M237.363 201.309H223.334C222.992 201.309 222.664 201.173 222.423 200.93C222.181 200.687 222.045 200.357 222.045 200.013C222.045 199.669 222.181 199.34 222.423 199.096C222.664 198.853 222.992 198.717 223.334 198.717H237.363C237.705 198.717 238.033 198.853 238.275 199.096C238.516 199.34 238.652 199.669 238.652 200.013C238.652 200.357 238.516 200.687 238.275 200.93C238.033 201.173 237.705 201.309 237.363 201.309Z" fill="black"></path><path d="M237.363 209.774H223.334C222.992 209.774 222.664 209.637 222.423 209.394C222.181 209.151 222.045 208.821 222.045 208.477C222.045 208.134 222.181 207.804 222.423 207.561C222.664 207.318 222.992 207.181 223.334 207.181H237.363C237.705 207.181 238.033 207.318 238.275 207.561C238.516 207.804 238.652 208.134 238.652 208.477C238.652 208.821 238.516 209.151 238.275 209.394C238.033 209.637 237.705 209.774 237.363 209.774Z" fill="black"></path><path d="M237.363 218.238H223.334C222.992 218.238 222.664 218.101 222.423 217.858C222.181 217.615 222.045 217.286 222.045 216.942C222.045 216.598 222.181 216.268 222.423 216.025C222.664 215.782 222.992 215.646 223.334 215.646H237.363C237.705 215.646 238.033 215.782 238.275 216.025C238.516 216.268 238.652 216.598 238.652 216.942C238.652 217.286 238.516 217.615 238.275 217.858C238.033 218.101 237.705 218.238 237.363 218.238Z" fill="black"></path></g><path d="M277.914 150.548H249.148C248.806 150.548 248.478 150.411 248.236 150.168C247.994 149.925 247.858 149.595 247.858 149.251C247.858 148.908 247.994 148.578 248.236 148.335C248.478 148.092 248.806 147.955 249.148 147.955H277.914C278.256 147.955 278.584 148.092 278.826 148.335C279.068 148.578 279.203 148.908 279.203 149.251C279.203 149.595 279.068 149.925 278.826 150.168C278.584 150.411 278.256 150.548 277.914 150.548Z" fill="#00DCAD"></path><path d="M360.552 150.548H285.574C285.232 150.548 284.904 150.411 284.662 150.168C284.42 149.925 284.284 149.595 284.284 149.251C284.284 148.908 284.42 148.578 284.662 148.335C284.904 148.092 285.232 147.955 285.574 147.955H360.552C360.894 147.955 361.222 148.092 361.463 148.335C361.705 148.578 361.841 148.908 361.841 149.251C361.841 149.595 361.705 149.925 361.463 150.168C361.222 150.411 360.894 150.548 360.552 150.548Z" fill="#263238"></path><g opacity="0.2"><path d="M394.771 150.548H373.045C372.703 150.548 372.375 150.411 372.134 150.168C371.892 149.925 371.756 149.595 371.756 149.251C371.756 148.908 371.892 148.578 372.134 148.335C372.375 148.092 372.703 147.955 373.045 147.955H394.771C395.113 147.955 395.441 148.092 395.683 148.335C395.925 148.578 396.061 148.908 396.061 149.251C396.061 149.595 395.925 149.925 395.683 150.168C395.441 150.411 395.113 150.548 394.771 150.548Z" fill="#263238"></path></g><g opacity="0.2"><path d="M328.162 158.999H253.016C252.674 158.999 252.346 158.863 252.104 158.62C251.862 158.376 251.727 158.047 251.727 157.703C251.727 157.359 251.862 157.029 252.104 156.786C252.346 156.543 252.674 156.407 253.016 156.407H328.162C328.504 156.407 328.832 156.543 329.073 156.786C329.315 157.029 329.451 157.359 329.451 157.703C329.451 158.047 329.315 158.376 329.073 158.62C328.832 158.863 328.504 158.999 328.162 158.999Z" fill="#263238"></path></g><path d="M405.087 158.999H335.099C334.757 158.999 334.429 158.863 334.187 158.62C333.945 158.376 333.81 158.047 333.81 157.703C333.81 157.359 333.945 157.029 334.187 156.786C334.429 156.543 334.757 156.407 335.099 156.407H405.139C405.481 156.407 405.809 156.543 406.05 156.786C406.292 157.029 406.428 157.359 406.428 157.703C406.428 158.047 406.292 158.376 406.05 158.62C405.809 158.863 405.481 158.999 405.139 158.999H405.087Z" fill="#00DCAD"></path><path d="M297.552 167.464H253.016C252.674 167.464 252.346 167.328 252.104 167.084C251.862 166.841 251.727 166.512 251.727 166.168C251.727 165.824 251.862 165.494 252.104 165.251C252.346 165.008 252.674 164.872 253.016 164.872H297.552C297.893 164.872 298.221 165.008 298.463 165.251C298.705 165.494 298.841 165.824 298.841 166.168C298.841 166.512 298.705 166.841 298.463 167.084C298.221 167.328 297.893 167.464 297.552 167.464Z" fill="#263238"></path><path d="M350.572 167.464H306.733C306.391 167.464 306.063 167.328 305.821 167.084C305.579 166.841 305.443 166.512 305.443 166.168C305.443 165.824 305.579 165.494 305.821 165.251C306.063 165.008 306.391 164.872 306.733 164.872H350.572C350.914 164.872 351.242 165.008 351.484 165.251C351.726 165.494 351.861 165.824 351.861 166.168C351.861 166.512 351.726 166.841 351.484 167.084C351.242 167.328 350.914 167.464 350.572 167.464Z" fill="#00DCAD"></path><path d="M405.087 167.464H357.741C357.399 167.464 357.071 167.328 356.829 167.084C356.587 166.841 356.451 166.512 356.451 166.168C356.451 165.824 356.587 165.494 356.829 165.251C357.071 165.008 357.399 164.872 357.741 164.872H405.087C405.429 164.872 405.757 165.008 405.999 165.251C406.241 165.494 406.376 165.824 406.376 166.168C406.376 166.512 406.241 166.841 405.999 167.084C405.757 167.328 405.429 167.464 405.087 167.464Z" fill="#263238"></path><path d="M301.678 175.928H274.949C274.607 175.928 274.279 175.792 274.037 175.549C273.795 175.306 273.659 174.976 273.659 174.632C273.659 174.288 273.795 173.959 274.037 173.716C274.279 173.473 274.607 173.336 274.949 173.336H301.678C302.02 173.336 302.348 173.473 302.589 173.716C302.831 173.959 302.967 174.288 302.967 174.632C302.967 174.976 302.831 175.306 302.589 175.549C302.348 175.792 302.02 175.928 301.678 175.928Z" fill="#263238"></path><path d="M339.535 175.928H310.356C310.014 175.928 309.686 175.792 309.444 175.549C309.202 175.306 309.066 174.976 309.066 174.632C309.066 174.288 309.202 173.959 309.444 173.716C309.686 173.473 310.014 173.336 310.356 173.336H339.535C339.877 173.336 340.205 173.473 340.446 173.716C340.688 173.959 340.824 174.288 340.824 174.632C340.824 174.976 340.688 175.306 340.446 175.549C340.205 175.792 339.877 175.928 339.535 175.928Z" fill="#263238"></path><g opacity="0.2"><path d="M393.482 175.928H346.161C345.819 175.928 345.492 175.792 345.25 175.549C345.008 175.306 344.872 174.976 344.872 174.632C344.872 174.288 345.008 173.959 345.25 173.716C345.492 173.473 345.819 173.336 346.161 173.336H393.482C393.824 173.336 394.152 173.473 394.394 173.716C394.636 173.959 394.772 174.288 394.772 174.632C394.772 174.976 394.636 175.306 394.394 175.549C394.152 175.792 393.824 175.928 393.482 175.928Z" fill="#263238"></path></g><g opacity="0.2"><path d="M288.977 184.393H253.016C252.674 184.393 252.346 184.257 252.104 184.014C251.862 183.771 251.727 183.441 251.727 183.097C251.727 182.753 251.862 182.424 252.104 182.18C252.346 181.937 252.674 181.801 253.016 181.801H288.977C289.319 181.801 289.647 181.937 289.889 182.18C290.131 182.424 290.266 182.753 290.266 183.097C290.266 183.441 290.131 183.771 289.889 184.014C289.647 184.257 289.319 184.393 288.977 184.393Z" fill="#263238"></path></g><path d="M293.477 192.844H253.016C252.674 192.844 252.346 192.708 252.104 192.465C251.862 192.222 251.727 191.892 251.727 191.548C251.727 191.204 251.862 190.875 252.104 190.632C252.346 190.389 252.674 190.252 253.016 190.252H293.477C293.819 190.252 294.147 190.389 294.389 190.632C294.631 190.875 294.766 191.204 294.766 191.548C294.766 191.892 294.631 192.222 294.389 192.465C294.147 192.708 293.819 192.844 293.477 192.844Z" fill="#00DCAD"></path><path d="M361.067 192.844H300.105C299.763 192.844 299.435 192.708 299.193 192.465C298.951 192.222 298.815 191.892 298.815 191.548C298.815 191.204 298.951 190.875 299.193 190.632C299.435 190.389 299.763 190.252 300.105 190.252H361.067C361.409 190.252 361.737 190.389 361.979 190.632C362.221 190.875 362.357 191.204 362.357 191.548C362.357 191.892 362.221 192.222 361.979 192.465C361.737 192.708 361.409 192.844 361.067 192.844Z" fill="#263238"></path><path d="M405.087 192.844H368.455C368.113 192.844 367.785 192.708 367.544 192.465C367.302 192.222 367.166 191.892 367.166 191.548C367.166 191.204 367.302 190.875 367.544 190.632C367.785 190.389 368.113 190.252 368.455 190.252H405.087C405.429 190.252 405.757 190.389 405.999 190.632C406.241 190.875 406.376 191.204 406.376 191.548C406.376 191.892 406.241 192.222 405.999 192.465C405.757 192.708 405.429 192.844 405.087 192.844Z" fill="#263238"></path><g opacity="0.2"><path d="M289.08 201.309H265.871C265.529 201.309 265.202 201.173 264.96 200.93C264.718 200.687 264.582 200.357 264.582 200.013C264.582 199.669 264.718 199.34 264.96 199.096C265.202 198.853 265.529 198.717 265.871 198.717H289.08C289.422 198.717 289.75 198.853 289.992 199.096C290.234 199.34 290.37 199.669 290.37 200.013C290.37 200.357 290.234 200.687 289.992 200.93C289.75 201.173 289.422 201.309 289.08 201.309Z" fill="#263238"></path></g><g opacity="0.2"><path d="M341.417 201.309H296.985C296.643 201.309 296.315 201.173 296.073 200.93C295.831 200.687 295.695 200.357 295.695 200.013C295.695 199.669 295.831 199.34 296.073 199.096C296.315 198.853 296.643 198.717 296.985 198.717H341.417C341.759 198.717 342.087 198.853 342.329 199.096C342.571 199.34 342.706 199.669 342.706 200.013C342.706 200.357 342.571 200.687 342.329 200.93C342.087 201.173 341.759 201.309 341.417 201.309Z" fill="#263238"></path></g><path d="M393.482 201.309H350.094C349.752 201.309 349.424 201.173 349.182 200.93C348.941 200.687 348.805 200.357 348.805 200.013C348.805 199.669 348.941 199.34 349.182 199.096C349.424 198.853 349.752 198.717 350.094 198.717H393.482C393.824 198.717 394.152 198.853 394.394 199.096C394.636 199.34 394.771 199.669 394.771 200.013C394.771 200.357 394.636 200.687 394.394 200.93C394.152 201.173 393.824 201.309 393.482 201.309Z" fill="#263238"></path><path d="M306.126 209.774H278.817C278.475 209.774 278.147 209.637 277.905 209.394C277.663 209.151 277.527 208.821 277.527 208.477C277.527 208.134 277.663 207.804 277.905 207.561C278.147 207.318 278.475 207.181 278.817 207.181H306.126C306.468 207.181 306.796 207.318 307.038 207.561C307.28 207.804 307.415 208.134 307.415 208.477C307.415 208.821 307.28 209.151 307.038 209.394C306.796 209.637 306.468 209.774 306.126 209.774Z" fill="#263238"></path><g opacity="0.2"><path d="M337.742 209.774H311.735C311.393 209.774 311.065 209.637 310.823 209.394C310.581 209.151 310.445 208.821 310.445 208.477C310.445 208.134 310.581 207.804 310.823 207.561C311.065 207.318 311.393 207.181 311.735 207.181H337.742C338.084 207.181 338.412 207.318 338.653 207.561C338.895 207.804 339.031 208.134 339.031 208.477C339.031 208.821 338.895 209.151 338.653 209.394C338.412 209.637 338.084 209.774 337.742 209.774Z" fill="#263238"></path></g><path d="M393.482 209.774H345.904C345.562 209.774 345.234 209.637 344.992 209.394C344.75 209.151 344.614 208.821 344.614 208.477C344.614 208.134 344.75 207.804 344.992 207.561C345.234 207.318 345.562 207.181 345.904 207.181H393.482C393.824 207.181 394.152 207.318 394.394 207.561C394.636 207.804 394.772 208.134 394.772 208.477C394.772 208.821 394.636 209.151 394.394 209.394C394.152 209.637 393.824 209.774 393.482 209.774Z" fill="#00DCAD"></path><g opacity="0.2"><path d="M312.199 218.239H278.817C278.475 218.239 278.147 218.102 277.905 217.859C277.663 217.616 277.527 217.286 277.527 216.942C277.527 216.598 277.663 216.269 277.905 216.026C278.147 215.783 278.475 215.646 278.817 215.646H312.199C312.541 215.646 312.869 215.783 313.111 216.026C313.353 216.269 313.488 216.598 313.488 216.942C313.488 217.286 313.353 217.616 313.111 217.859C312.869 218.102 312.541 218.239 312.199 218.239Z" fill="#263238"></path></g><path opacity="0.4" d="M411.173 118.66C411.173 119.101 411.303 119.533 411.548 119.9C411.792 120.267 412.139 120.552 412.545 120.721C412.951 120.889 413.398 120.933 413.828 120.845C414.259 120.758 414.654 120.545 414.963 120.232C415.273 119.919 415.483 119.52 415.567 119.087C415.651 118.653 415.606 118.205 415.436 117.798C415.266 117.39 414.98 117.043 414.613 116.8C414.247 116.556 413.817 116.428 413.378 116.43C413.087 116.43 412.799 116.488 412.531 116.6C412.263 116.712 412.019 116.877 411.814 117.084C411.609 117.291 411.447 117.537 411.337 117.808C411.227 118.078 411.171 118.368 411.173 118.66Z" fill="white"></path><path opacity="0.4" d="M405.693 120.877C406.911 120.877 407.898 119.884 407.898 118.66C407.898 117.436 406.911 116.443 405.693 116.443C404.475 116.443 403.488 117.436 403.488 118.66C403.488 119.884 404.475 120.877 405.693 120.877Z" fill="white"></path><path opacity="0.4" d="M397.944 120.877C399.162 120.877 400.149 119.884 400.149 118.66C400.149 117.436 399.162 116.443 397.944 116.443C396.726 116.443 395.739 117.436 395.739 118.66C395.739 119.884 396.726 120.877 397.944 120.877Z" fill="white"></path><path d="M191.615 350.6L219.299 349.239L216.604 373.44C216.604 373.44 197.392 377.121 188.817 363.381L191.615 350.6Z" fill="#EBB376"></path><path d="M237.144 357.677L230.838 375.229L216.604 373.44L219.298 349.239L237.144 357.677Z" fill="#EBB376"></path><path d="M165.041 389.876C175.582 384.342 185.19 377.172 193.511 368.63L191.615 350.599C165.454 354.488 150.355 360.049 150.355 360.049C150.355 360.049 160.051 325.115 151.18 312.386L126.823 316.819C126.823 316.819 100.945 370.899 118.352 389.876H165.041Z" fill="#714B67"></path><path opacity="0.7" d="M165.003 389.876C175.55 384.344 185.166 377.179 193.498 368.644L191.616 350.587C166.292 354.32 151.322 359.661 150.355 360.011C150.678 358.714 159.845 324.869 151.155 312.373L126.798 316.806C121.79 327.665 117.814 338.976 114.923 350.587C111.441 365.351 110.423 381.256 118.34 389.876H165.003Z" fill="white"></path><path opacity="0.2" d="M144.978 389.876C153.578 335.096 145.958 321.175 145.958 321.175L115.013 350.561C111.531 365.325 110.513 381.23 118.43 389.85L144.978 389.876Z" fill="black"></path><path d="M139.602 389.876C145.404 362.188 151.915 318.841 151.206 312.386C150.175 303.001 99.3983 262.791 55.3269 292.06C46.3012 298.036 41.6981 362.499 40.125 389.876H139.602Z" fill="#714B67"></path><path opacity="0.7" d="M139.602 389.876C145.404 362.188 151.915 318.828 151.206 312.373C150.175 303.001 99.3854 262.791 55.314 292.073C52.0519 294.264 49.3699 304.154 47.1522 317.221C44.2124 335.005 42.1751 358.623 40.9631 376.434C40.6279 381.476 40.3442 386.039 40.125 389.876H139.602Z" fill="white"></path><path d="M117.85 173.103C102.57 166.894 66.5447 189.176 63.3857 228.907C60.2266 268.637 80.2638 257.632 80.2638 257.632C80.2638 257.632 83.8354 272.785 98.4313 268.106C98.4313 268.106 110.487 281.833 121.705 276.246C121.705 276.246 135.669 290.868 143.16 283.155C143.16 283.155 151.309 292.501 158.749 285.424C166.189 278.346 187.451 206.093 154.094 189.384C120.738 172.675 117.85 173.103 117.85 173.103Z" fill="#263238"></path><path d="M117.875 335.718L116.405 335.589C118.107 316.456 113.916 307.991 113.826 307.914L115.116 307.227C115.361 307.525 119.616 316.041 117.875 335.718Z" fill="#263238"></path><path d="M124.786 335.887C114.664 311.919 126.075 306.332 126.54 306.073L127.146 307.37C127.042 307.37 116.624 312.671 126.14 335.226L124.786 335.887Z" fill="#263238"></path><path d="M114.897 311.79C114.897 311.79 95.3623 296.235 65.0359 287.472L55.301 292.061C55.301 292.061 38.9773 271.748 66.1834 265.098C93.3896 258.449 130.395 276.765 139.679 292.449C148.962 308.134 123.536 313.19 123.536 313.19C123.536 313.19 121.202 310.001 114.897 311.79Z" fill="#714B67"></path><path opacity="0.6" d="M114.897 311.79C114.897 311.79 95.3623 296.235 65.0359 287.472L55.301 292.061C55.301 292.061 38.9773 271.748 66.1834 265.098C93.3896 258.449 130.395 276.765 139.679 292.449C148.962 308.134 123.536 313.19 123.536 313.19C123.536 313.19 121.202 310.001 114.897 311.79Z" fill="white"></path><path d="M126.681 335.602C126.681 335.858 126.606 336.109 126.464 336.322C126.322 336.535 126.121 336.701 125.885 336.8C125.65 336.898 125.391 336.923 125.14 336.873C124.89 336.823 124.661 336.7 124.48 336.518C124.3 336.337 124.177 336.106 124.127 335.855C124.078 335.603 124.103 335.343 124.201 335.106C124.298 334.869 124.464 334.667 124.676 334.524C124.888 334.382 125.137 334.306 125.392 334.306C125.734 334.306 126.062 334.442 126.304 334.685C126.545 334.928 126.681 335.258 126.681 335.602Z" fill="white"></path><path d="M118.313 335.602C118.313 335.858 118.238 336.109 118.096 336.322C117.954 336.535 117.753 336.701 117.517 336.8C117.282 336.898 117.022 336.923 116.772 336.873C116.522 336.823 116.292 336.7 116.112 336.518C115.932 336.337 115.809 336.106 115.759 335.855C115.709 335.603 115.735 335.343 115.833 335.106C115.93 334.869 116.095 334.667 116.307 334.524C116.519 334.382 116.769 334.306 117.024 334.306C117.366 334.306 117.694 334.442 117.935 334.685C118.177 334.928 118.313 335.258 118.313 335.602Z" fill="white"></path><path d="M104.517 238.499C103.331 252.408 99.0884 277.166 87.832 282.572C87.832 282.572 100.416 285.164 120.067 310.195C131.246 302.314 127.017 296.934 127.017 296.934C113.942 288.314 117.333 277.685 122.62 268.417L104.517 238.499Z" fill="#EBB376"></path><path opacity="0.2" d="M111.879 250.697L122.594 268.455C121.315 270.599 120.231 272.855 119.358 275.196C114.2 272.422 108.553 263.633 109.623 257.619C109.957 255.194 110.721 252.85 111.879 250.697Z" fill="black"></path><path d="M103.008 209.087C99.4108 230.942 97.4251 240.093 105.484 254.158C117.591 275.326 144.423 276.324 154.287 256.31C163.158 238.292 167.555 205.574 149.039 191.134C130.769 176.901 106.58 187.219 103.008 209.087Z" fill="#EBB376"></path><path d="M147.531 178.962C161.624 186.817 175.046 211.369 154.996 205.237C151.966 211.135 141.174 205.73 134.895 198.652C133.837 203.565 122.285 208.491 113.775 200.882C117.888 206.845 110.886 221.894 103.601 219.302C96.3162 216.709 79.9667 213.3 94.4466 190.097C108.926 166.894 132.484 170.549 147.531 178.962Z" fill="#263238"></path><path d="M142.399 229.71C142.399 229.71 143.689 238.382 146.138 243.088C143.392 244.682 139.691 242.556 139.691 242.556L142.399 229.71Z" fill="#D58745"></path><path d="M128.345 246.445C129.26 246.894 130.214 247.259 131.195 247.534C131.261 247.553 131.33 247.558 131.398 247.549C131.467 247.539 131.532 247.515 131.591 247.479C131.649 247.442 131.699 247.393 131.737 247.336C131.776 247.278 131.802 247.213 131.814 247.145C131.849 247.003 131.827 246.852 131.752 246.726C131.677 246.599 131.555 246.508 131.414 246.471C129.195 245.846 127.145 244.729 125.413 243.201C123.681 241.673 122.313 239.774 121.408 237.644C121.389 237.575 121.356 237.511 121.312 237.455C121.267 237.399 121.212 237.353 121.15 237.319C121.087 237.285 121.018 237.264 120.948 237.258C120.877 237.251 120.805 237.259 120.738 237.281C120.607 237.335 120.503 237.439 120.448 237.57C120.392 237.701 120.39 237.848 120.441 237.981C121.951 241.683 124.765 244.697 128.345 246.445Z" fill="#263238"></path><path d="M92.0356 224.798C93.2511 229.342 96.2095 233.215 100.262 235.57C105.51 238.46 109.288 233.509 108.901 227.351C108.501 221.79 105.278 213.598 99.5269 213.274C93.7763 212.95 90.4754 219.055 92.0356 224.798Z" fill="#EBB376"></path><path d="M126.862 209.683C126.991 209.744 127.132 209.775 127.275 209.775C127.417 209.775 127.558 209.744 127.687 209.683C128.832 209.045 130.115 208.699 131.423 208.676C132.732 208.654 134.026 208.955 135.191 209.554C135.307 209.628 135.437 209.678 135.573 209.698C135.709 209.719 135.848 209.711 135.98 209.674C136.113 209.637 136.236 209.573 136.343 209.485C136.449 209.398 136.535 209.288 136.597 209.165C136.724 208.904 136.752 208.605 136.673 208.325C136.594 208.045 136.416 207.804 136.171 207.648C134.717 206.847 133.085 206.427 131.426 206.427C129.768 206.427 128.136 206.847 126.681 207.648C126.437 207.794 126.259 208.029 126.182 208.304C126.105 208.579 126.136 208.873 126.269 209.126C126.394 209.377 126.605 209.574 126.862 209.683Z" fill="#263238"></path><path d="M161.508 218.213C161.625 218.279 161.754 218.321 161.887 218.334C162.02 218.348 162.155 218.333 162.282 218.29C162.416 218.245 162.54 218.174 162.646 218.08C162.752 217.986 162.838 217.871 162.9 217.743C162.961 217.615 162.996 217.476 163.003 217.334C163.01 217.192 162.988 217.05 162.939 216.916C162.469 215.232 161.618 213.68 160.452 212.38C159.287 211.081 157.839 210.069 156.222 209.424C156.089 209.377 155.948 209.359 155.807 209.371C155.667 209.384 155.531 209.426 155.409 209.496C155.286 209.567 155.18 209.662 155.098 209.777C155.016 209.892 154.959 210.024 154.932 210.163C154.865 210.444 154.905 210.741 155.043 210.995C155.181 211.249 155.408 211.442 155.68 211.537C156.955 212.067 158.092 212.883 159.004 213.923C159.916 214.964 160.579 216.2 160.941 217.538C160.986 217.683 161.06 217.817 161.157 217.933C161.254 218.049 161.374 218.144 161.508 218.213Z" fill="#263238"></path><path d="M133.799 223.981C133.167 225.718 131.723 226.768 130.576 226.34C129.428 225.912 129.016 224.175 129.647 222.451C130.279 220.727 131.723 219.664 132.858 220.092C133.993 220.52 134.418 222.257 133.799 223.981Z" fill="#263238"></path><path d="M132.355 220.001L136.636 219.911C136.636 219.911 133.619 222.374 132.355 220.001Z" fill="#263238"></path><path d="M155.448 230.89C154.816 232.614 153.372 233.664 152.237 233.249C151.103 232.835 150.664 231.072 151.296 229.361C151.928 227.65 153.372 226.587 154.52 227.001C155.667 227.416 156.08 229.153 155.448 230.89Z" fill="#263238"></path><path d="M154.017 226.897L158.284 226.807C158.284 226.807 155.267 229.282 154.017 226.897Z" fill="#263238"></path><path d="M131.762 236.23C130.43 236.235 129.111 235.956 127.893 235.414C126.605 234.819 125.46 233.95 124.538 232.867C123.616 231.784 122.94 230.512 122.555 229.14C121.724 226.182 121.952 223.024 123.198 220.217C124.444 217.411 126.631 215.132 129.376 213.779C130.648 213.14 132.045 212.792 133.467 212.761C134.888 212.73 136.299 213.016 137.598 213.598C138.896 214.181 140.05 215.046 140.976 216.131C141.902 217.215 142.578 218.493 142.954 219.872C143.811 222.827 143.577 225.994 142.296 228.79C141.086 231.631 138.892 233.934 136.12 235.271C134.754 235.907 133.267 236.234 131.762 236.23ZM133.786 214.259C132.502 214.293 131.241 214.603 130.085 215.166C127.664 216.37 125.736 218.386 124.635 220.866C123.533 223.346 123.327 226.135 124.051 228.751C124.361 229.929 124.93 231.022 125.715 231.95C126.5 232.878 127.482 233.618 128.589 234.115C129.695 234.613 130.899 234.855 132.11 234.823C133.322 234.792 134.511 234.489 135.591 233.936C138.032 232.762 139.968 230.741 141.045 228.246C142.179 225.77 142.385 222.967 141.625 220.351C141.302 219.181 140.728 218.095 139.944 217.17C139.161 216.246 138.185 215.504 137.087 214.998C136.054 214.51 134.927 214.257 133.786 214.259Z" fill="#263238"></path><path d="M153.217 242.842C151.884 242.853 150.565 242.575 149.349 242.025C148.06 241.429 146.914 240.56 145.991 239.477C145.067 238.394 144.387 237.123 143.998 235.751C143.173 232.791 143.405 229.635 144.653 226.829C145.901 224.023 148.088 221.745 150.832 220.39C152.103 219.749 153.499 219.399 154.921 219.367C156.342 219.334 157.753 219.62 159.051 220.203C160.349 220.786 161.502 221.652 162.427 222.738C163.351 223.824 164.024 225.103 164.396 226.483C165.265 229.436 165.036 232.605 163.752 235.401C162.881 237.52 161.428 239.345 159.562 240.663C157.696 241.981 155.495 242.737 153.217 242.842ZM155.267 220.805C153.966 220.814 152.681 221.106 151.502 221.661C149.064 222.844 147.128 224.868 146.048 227.364C144.908 229.833 144.701 232.635 145.468 235.246C145.791 236.418 146.365 237.505 147.149 238.432C147.933 239.359 148.908 240.103 150.007 240.612C154.52 242.647 160.116 240.003 162.462 234.74C163.59 232.263 163.796 229.462 163.043 226.846C162.717 225.676 162.142 224.592 161.358 223.668C160.575 222.743 159.601 222.001 158.504 221.492C157.479 221.063 156.377 220.851 155.267 220.87V220.805Z" fill="#263238"></path><path d="M144.011 229.322C143.983 229.229 143.935 229.144 143.87 229.072C143.805 229.001 143.726 228.944 143.637 228.907C143.071 228.808 142.488 228.894 141.974 229.153L141.329 227.857C142.205 227.407 143.216 227.3 144.166 227.559C144.463 227.664 144.733 227.836 144.957 228.06C145.18 228.284 145.35 228.556 145.455 228.855L144.011 229.322Z" fill="#263238"></path><path d="M108.749 215.451L108.308 216.869L125.761 222.352L126.202 220.934L108.749 215.451Z" fill="#263238"></path><path opacity="0.2" d="M104.659 351.87C104.659 351.87 70.7349 378.002 40.9629 376.499C42.1749 358.688 44.2122 335.018 47.152 317.286C50.1949 313.915 52.1935 311.867 52.1935 311.867L70.245 325.439L65.8481 330.987C65.8481 330.987 93.1703 329.587 102.686 330.987L104.659 351.87Z" fill="black"></path><path d="M108.166 330.922L135.321 325.348L136.288 349.692C136.288 349.692 117.863 356.251 107.315 343.976L108.166 330.922Z" fill="#EBB376"></path><path d="M154.223 331L150.638 349.303L136.287 349.705L135.32 325.361L154.223 331Z" fill="#EBB376"></path><path d="M108.166 330.922L109.494 349.705L102.738 352.751L99.8496 330.922H108.166Z" fill="#714B67"></path><path opacity="0.6" d="M108.166 330.922L109.494 349.705L102.738 352.751L99.8496 330.922H108.166Z" fill="white"></path><path d="M65.0359 287.472C57.7496 288.765 51.1513 292.603 46.4042 298.308C38.2166 307.979 9.36004 336.704 15.7683 360.153C22.1766 383.602 83.8868 366.155 102.738 352.751L99.8495 330.922L57.1062 334.072L70.2838 325.348C79.3224 300.071 65.0359 287.472 65.0359 287.472Z" fill="#714B67"></path><path opacity="0.7" d="M65.0359 287.472C57.7496 288.765 51.1513 292.603 46.4042 298.308C38.2166 307.979 9.36004 336.704 15.7683 360.153C22.1766 383.602 83.8868 366.155 102.738 352.751L99.8495 330.922L57.1062 334.072L70.2838 325.348C79.3224 300.071 65.0359 287.472 65.0359 287.472Z" fill="white"></path><path d="M188.83 351.014L196.605 349.705V370.653L190.442 371.664L188.83 351.014Z" fill="#714B67"></path><path opacity="0.6" d="M188.83 351.014L196.605 349.705V370.653L190.442 371.664L188.83 351.014Z" fill="white"></path><path d="M173.112 370.445C173.09 369.298 173.146 368.15 173.28 367.01L173.512 365.286L171.849 366.271L170.856 366.868C170.529 367.016 170.193 367.141 169.85 367.244C169.263 367.43 168.632 367.43 168.045 367.244C167.477 367.033 166.978 366.67 166.601 366.194C166.165 365.668 165.821 365.072 165.582 364.431L164.125 360.347L163.094 364.677C162.991 365.105 162.926 365.545 162.849 365.973C162.771 366.401 162.591 366.777 162.475 367.179C162.228 367.825 161.814 368.393 161.276 368.825C160.674 369.136 159.975 369.196 159.329 368.993C158.516 368.779 157.741 368.438 157.034 367.982L154.79 366.569L155.693 368.864C156.083 369.839 156.394 370.845 156.621 371.871C156.734 372.383 156.803 372.903 156.827 373.427C156.884 373.96 156.766 374.497 156.492 374.956C156.945 374.591 157.255 374.077 157.369 373.504C157.516 372.946 157.594 372.371 157.601 371.793C157.627 371.34 157.627 370.886 157.601 370.432C157.976 370.646 158.364 370.836 158.761 371.003C159.347 371.244 159.976 371.36 160.608 371.344C161.241 371.329 161.863 371.182 162.436 370.912C163.526 370.297 164.376 369.328 164.847 368.164V367.995C165.545 368.794 166.48 369.345 167.513 369.567C168.547 369.789 169.624 369.669 170.585 369.227C170.964 369.054 171.33 368.855 171.681 368.631C171.681 368.631 171.681 368.721 171.681 368.773C171.773 369.384 171.898 369.99 172.055 370.588C172.212 371.191 172.428 371.777 172.7 372.338C172.957 372.902 173.341 373.399 173.821 373.79C173.532 373.282 173.344 372.723 173.267 372.143C173.178 371.581 173.126 371.014 173.112 370.445Z" fill="#714B67"></path><path d="M219.234 341.202C218.23 341.3 217.216 341.189 216.256 340.878C215.266 340.582 214.324 340.146 213.458 339.581C212.635 338.968 211.932 338.208 211.382 337.339C210.8 336.476 210.336 335.539 210.002 334.552L209.151 331.959L207.707 334.254C207.09 335.216 206.343 336.089 205.489 336.846C204.796 337.536 203.883 337.958 202.911 338.039H202.601L202.214 337.961C201.944 337.961 201.686 337.831 201.415 337.767C200.876 337.589 200.354 337.363 199.855 337.093C198.845 336.525 197.913 335.828 197.083 335.019L194.839 332.854L195.303 335.822C195.563 337.407 195.662 339.014 195.6 340.618C195.575 341.373 195.422 342.119 195.148 342.822C195.027 343.13 194.805 343.387 194.519 343.552C194.234 343.717 193.901 343.779 193.575 343.729H192.995L193.176 344.209C193.554 345.186 193.941 346.158 194.336 347.126C194.22 346.257 194.078 345.389 193.923 344.533H194.168C194.426 344.514 194.68 344.471 194.929 344.404C195.166 344.281 195.394 344.142 195.613 343.989C195.78 343.807 195.961 343.613 196.115 343.418C196.61 342.63 196.94 341.747 197.083 340.826C197.245 339.971 197.34 339.104 197.366 338.233C197.778 338.576 198.209 338.897 198.656 339.193C199.261 339.567 199.9 339.884 200.564 340.139C201.273 340.435 202.028 340.606 202.794 340.644C204.39 340.621 205.921 340.013 207.101 338.933C207.607 338.507 208.077 338.038 208.507 337.533C208.759 337.98 209.034 338.412 209.332 338.83C210.103 339.901 211.065 340.819 212.168 341.539C213.269 342.211 214.477 342.685 215.74 342.939C216.551 343.097 217.378 343.158 218.203 343.12C218.1 343.379 217.984 343.639 217.893 343.911C217.667 344.659 217.49 345.421 217.365 346.192C217.228 346.966 217.193 347.755 217.261 348.539C217.301 349.319 217.536 350.077 217.945 350.742C217.723 350.035 217.666 349.285 217.777 348.552C217.874 347.824 218.043 347.107 218.28 346.413C218.775 345.058 219.401 343.756 220.15 342.524L220.962 341.137L219.234 341.202Z" fill="#714B67"></path><path d="M477.189 417.81L24.9998 417.81C23.4814 417.81 22.0253 417.204 20.9516 416.125C19.878 415.045 19.2749 413.581 19.2749 412.055V398.055L482.914 398.055V412.055C482.914 413.581 482.311 415.045 481.237 416.125C480.164 417.204 478.708 417.81 477.189 417.81Z" fill="#714B67"></path><path opacity="0.2" d="M19.262 407.92L482.914 407.92V398.042L19.262 398.042V407.92Z" fill="black"></path><path d="M9.55317 400.622H492.636C494.105 400.622 495.513 400.036 496.552 398.994C497.592 397.951 498.177 396.537 498.181 395.061C498.181 393.583 497.597 392.165 496.557 391.12C495.517 390.074 494.107 389.487 492.636 389.487H9.55317C8.08271 389.487 6.67247 390.074 5.6327 391.12C4.59293 392.165 4.00879 393.583 4.00879 395.061C4.0122 396.537 4.59785 397.951 5.63725 398.994C6.67665 400.036 8.08494 400.622 9.55317 400.622Z" fill="#714B67"></path><path d="M459.899 321.46L445.794 385.78C445.536 386.81 444.948 387.727 444.121 388.387C443.293 389.048 442.273 389.416 441.216 389.436H364.162C363.683 389.423 363.213 389.299 362.789 389.073C362.365 388.848 361.999 388.526 361.719 388.135C361.439 387.743 361.253 387.291 361.176 386.815C361.099 386.339 361.132 385.852 361.274 385.391L375.354 321.563C375.643 320.591 376.255 319.748 377.088 319.174C377.922 318.601 378.925 318.333 379.931 318.414H456.985C459.048 318.465 460.351 319.412 459.899 321.46Z" fill="#263238"></path><path opacity="0.4" d="M459.899 321.46L445.793 385.78C445.536 386.81 444.948 387.727 444.121 388.387C443.293 389.048 442.272 389.416 441.216 389.436H366.78C366.299 389.425 365.827 389.303 365.402 389.078C364.976 388.853 364.608 388.532 364.327 388.14C364.046 387.748 363.859 387.295 363.781 386.819C363.703 386.342 363.737 385.853 363.878 385.391L377.984 321.564C378.267 320.587 378.878 319.74 379.712 319.165C380.547 318.591 381.554 318.325 382.562 318.414H456.985C459.048 318.465 460.351 319.412 459.899 321.46Z" fill="white"></path><path d="M447.612 387.452L461.64 323.469C462.105 321.369 460.802 320.423 458.726 320.423H384.303C383.296 320.339 382.291 320.607 381.458 321.181C380.624 321.754 380.012 322.599 379.725 323.573L365.478 388.295L447.612 387.452Z" fill="#714B67"></path><path opacity="0.4" d="M461.64 323.456L454.239 357.262L447.599 387.452L403.63 387.906L365.49 388.282L379.674 323.573C379.956 322.599 380.564 321.753 381.396 321.179C382.228 320.604 383.232 320.337 384.238 320.423H458.752C460.815 320.423 462.104 321.382 461.64 323.456Z" fill="white"></path><path opacity="0.2" d="M454.239 357.262L447.599 387.452L403.631 387.906H367.115L373.085 360.296C373.277 359.44 373.751 358.675 374.429 358.125C375.108 357.574 375.952 357.27 376.824 357.262H454.239Z" fill="black"></path><path d="M455.503 361.462C455.218 360.488 454.606 359.644 453.772 359.072C452.937 358.5 451.931 358.236 450.925 358.325H376.502C374.439 358.325 373.137 359.259 373.588 361.359L379.235 387.102H366.664C366.349 387.102 366.047 387.228 365.825 387.452C365.603 387.675 365.478 387.979 365.478 388.295C365.478 388.611 365.603 388.914 365.825 389.138C366.047 389.362 366.349 389.487 366.664 389.487H458.339C458.739 389.48 459.133 389.383 459.491 389.204C459.849 389.024 460.163 388.767 460.41 388.451C460.657 388.134 460.831 387.766 460.919 387.374C461.006 386.981 461.006 386.574 460.918 386.182L455.503 361.462Z" fill="#714B67"></path><path opacity="0.4" d="M455.503 361.462C455.218 360.488 454.606 359.644 453.772 359.072C452.937 358.5 451.931 358.236 450.925 358.325H376.502C374.439 358.325 373.137 359.259 373.588 361.359L379.235 387.102H366.664C366.349 387.102 366.047 387.228 365.825 387.452C365.603 387.675 365.478 387.979 365.478 388.295C365.478 388.611 365.603 388.914 365.825 389.138C366.047 389.362 366.349 389.487 366.664 389.487H458.339C458.739 389.48 459.133 389.383 459.491 389.204C459.849 389.024 460.163 388.767 460.41 388.451C460.657 388.134 460.831 387.766 460.919 387.374C461.006 386.981 461.006 386.574 460.918 386.182L455.503 361.462Z" fill="white"></path><path d="M364.433 377.082H360.114L359.572 379.429H363.776L364.433 377.082Z" fill="black"></path><path d="M337.137 389.786H324.694C324.597 389.787 324.501 389.769 324.411 389.733C324.321 389.696 324.239 389.642 324.17 389.573C324.102 389.504 324.048 389.422 324.012 389.332C323.975 389.241 323.957 389.144 323.959 389.047C323.959 388.851 324.037 388.663 324.174 388.524C324.312 388.386 324.499 388.308 324.694 388.308H337.137C339.178 388.312 341.195 387.853 343.036 386.967C344.878 386.081 346.497 384.789 347.774 383.188C349.19 381.41 350.985 379.977 353.028 378.994C355.071 378.011 357.308 377.504 359.572 377.51H361.764C361.958 377.513 362.143 377.592 362.28 377.73C362.417 377.868 362.496 378.054 362.499 378.249C362.499 378.445 362.422 378.633 362.284 378.771C362.146 378.91 361.959 378.988 361.764 378.988H359.598C357.556 378.984 355.54 379.442 353.698 380.329C351.857 381.215 350.238 382.507 348.96 384.108C347.542 385.888 345.742 387.323 343.694 388.306C341.647 389.289 339.405 389.795 337.137 389.786Z" fill="black"></path><path d="M129.803 380.633V386.039C129.803 388.476 132.73 389.487 135.154 389.487H324.153C326.551 389.487 329.4 388.476 329.4 386.039V380.633H129.803Z" fill="#263238"></path><path opacity="0.4" d="M129.803 380.633V386.039C129.803 388.476 132.73 389.487 135.154 389.487H324.153C326.551 389.487 329.4 388.476 329.4 386.039V380.633H129.803Z" fill="white"></path><path opacity="0.2" d="M194.195 380.633V386.039C194.195 388.476 197.071 389.487 199.495 389.487H324.153C326.551 389.487 329.401 388.476 329.401 386.039V380.633H194.195Z" fill="black"></path><path d="M361.03 277.814L338.53 380.413C338.126 382.062 337.192 383.531 335.872 384.59C334.552 385.65 332.921 386.241 331.232 386.272H208.314C205.052 386.272 202.937 383.2 203.698 379.791L226.172 277.97C226.933 274.625 230.182 272.953 233.483 272.953H356.388C359.689 272.966 361.765 274.47 361.03 277.814Z" fill="#263238"></path><path opacity="0.4" d="M361.03 277.814L338.53 380.413C338.126 382.062 337.192 383.531 335.872 384.59C334.552 385.65 332.921 386.241 331.232 386.272H212.492C209.191 386.272 207.115 383.2 207.85 379.791L230.35 277.97C231.085 274.625 234.36 272.953 237.661 272.953H356.388C359.689 272.966 361.765 274.47 361.03 277.814Z" fill="white"></path><path opacity="0.2" d="M300.428 329.962C300.428 338.751 291.067 345.893 284.194 345.893C277.322 345.893 273.26 338.751 275.169 329.962C277.077 321.174 283.949 314.343 290.641 314.07C288.681 322.859 292.872 329.962 299.667 329.962C299.92 329.987 300.175 329.987 300.428 329.962Z" fill="black"></path></svg>